<?xml version="1.0"?>
<svg xmlns="http://www.w3.org/2000/svg" height="512px" viewBox="-55 0 463 463.804" width="512px"><path d="m176.402344 48c-70.578125 0-128 57.425781-128 128s57.421875 128 128 128c70.574218 0 128-57.425781 128-128s-57.425782-128-128-128zm107.351562 126.511719-27.351562-19.535157v101.03125h-160v-101.03125l-27.351563 19.535157-9.296875-13.015625 116.648438-83.320313 116.648437 83.320313zm0 0" fill="#006DF0"/><path d="m160.402344 192h32v48h-32zm0 0" fill="#006DF0"/><path d="m176.402344 0c-97.046875 0-176 78.953125-176 176v2.105469c0 38.175781 12.703125 75.949219 35.785156 106.375l133.757812 176.3125c3.046876 4.015625 9.871094 4.015625 12.921876 0l133.757812-176.3125c23.074219-30.425781 35.777344-68.199219 35.777344-106.375v-2.105469c0-97.046875-78.953125-176-176-176zm-24 384h-16v-16h16zm32 0h-16v-16h16zm32 0h-16v-16h16zm-40-64c-79.398438 0-144-64.601562-144-144s64.601562-144 144-144c79.398437 0 144 64.601562 144 144s-64.601563 144-144 144zm0 0" fill="#006DF0"/><path d="m112.402344 143.542969v96.457031h32v-64h64v64h32v-96.457031l-64-45.710938zm0 0" fill="#006DF0"/></svg>
