<svg xmlns="http://www.w3.org/2000/svg" viewBox="0 0 54.76 50.89"><defs><style>.cls-1{fill:#ea712e;}</style></defs><title>Guardar</title><g id="Capa_2" data-name="Capa 2"><g id="Capa_1-2" data-name="Capa 1"><path class="cls-1" d="M49.22,8.18A8.19,8.19,0,0,0,41,0H13.72A8.19,8.19,0,0,0,5.54,8.18V21.84H0V50.89H54.76v-29H49.22ZM29.54,45.11H25.22V37.62a5.27,5.27,0,0,1-.72-.43,5,5,0,1,1,5.76,0,5.27,5.27,0,0,1-.72.43v7.49ZM12,21.84V8.18a1.7,1.7,0,0,1,1.7-1.7H41a1.7,1.7,0,0,1,1.7,1.7V21.84Z"/></g></g></svg>