<svg xmlns="http://www.w3.org/2000/svg" viewBox="0 0 35.95 35.03"><defs><style>.cls-1{fill:#ea712e;}</style></defs><title>OK</title><g id="Capa_2" data-name="Capa 2"><g id="Capa_1-2" data-name="Capa 1"><path class="cls-1" d="M34.74,18.42a2.89,2.89,0,0,1-.69.32.43.43,0,0,0-.11.71,2.34,2.34,0,0,1-.18,3.5,3.32,3.32,0,0,1-.91.57.53.53,0,0,0-.14.87,1.82,1.82,0,0,1,.51,2.2,3.07,3.07,0,0,1-1.39,1.6,1.39,1.39,0,0,1-.28.12.42.42,0,0,0-.35.43.5.5,0,0,0,.19.45,1.77,1.77,0,0,1,.49,2.23,3.86,3.86,0,0,1-1,1.28,5.54,5.54,0,0,1-1.11.6,8,8,0,0,1-1.09.28c-9.77,2-16.63-.59-17.5-.91a7.59,7.59,0,0,0-1-.46.69.69,0,0,1-.23-.07V17.51l1.09-.77a.39.39,0,0,0,.1-.08l0,0a46.25,46.25,0,0,0,4.63-7.79C16.79,7,17,3.05,17,1.57A1.57,1.57,0,0,1,18.63,0a4.67,4.67,0,0,1,1.28.16,2.9,2.9,0,0,1,1.18,1.46,17.61,17.61,0,0,1,1.14,3.17A10.54,10.54,0,0,1,22.5,6a4.7,4.7,0,0,1,0,.92c0,.35,0,.71-.08,1.06-.07.69-.16,1.38-.28,2.06s-.27,1.48-.42,2.22v0a1.48,1.48,0,0,1,0,.19c-.24.94.72,1.5,1.29,1.74a5,5,0,0,0,.95.14l9,0c.42,0,.85,0,1.27,0a1.81,1.81,0,0,1,1.68,1.41A2.48,2.48,0,0,1,34.74,18.42Z"/><rect class="cls-1" y="15.35" width="9.97" height="19.68" rx="1.49" ry="1.49" transform="translate(9.97 50.37) rotate(180)"/><path class="cls-1" d="M1.06,25.06H8.91A1.06,1.06,0,0,1,10,26.12V35a0,0,0,0,1,0,0H0a0,0,0,0,1,0,0V26.12A1.06,1.06,0,0,1,1.06,25.06Z" transform="translate(9.97 60.08) rotate(180)"/></g></g></svg>