<svg xmlns="http://www.w3.org/2000/svg" viewBox="0 0 44.82 63.79"><defs><style>.cls-1{fill:#b2530d;}.cls-2{fill:#fff;}</style></defs><title>PinComun_1</title><g id="Capa_2" data-name="Capa 2"><g id="Capa_1-2" data-name="Capa 1"><path class="cls-1" d="M22.3,0A22.41,22.41,0,0,0,0,22.52c.11,20.87,19,39.8,19,39.8a4.92,4.92,0,0,0,7.17-.18S44.92,41.37,44.82,22.3A22.41,22.41,0,0,0,22.3,0Z"/><path class="cls-2" d="M20.74,21.64a3.75,3.75,0,0,0,3.45,0l8.65-5.13a1.08,1.08,0,0,0,0-2l-8.63-5a3.89,3.89,0,0,0-3.47,0l-8.74,5a1.06,1.06,0,0,0,0,2Z"/><path class="cls-2" d="M25.41,24.6a3.91,3.91,0,0,0-1.72,3v8.53c0,1.1.78,1.55,1.73,1l8.7-5a3.87,3.87,0,0,0,1.73-3v-8.7c0-1.1-.78-1.55-1.72-1Z"/><path class="cls-2" d="M19.63,24.6a3.92,3.92,0,0,1,1.73,3v8.53c0,1.1-.78,1.55-1.74,1l-8.69-5a3.85,3.85,0,0,1-1.74-3v-8.7c0-1.1.78-1.55,1.73-1Z"/></g></g></svg>