<svg xmlns="http://www.w3.org/2000/svg" viewBox="0 0 38.23 54.41"><defs><style>.cls-1{fill:#88868b;}.cls-2{fill:#fff;}</style></defs><title>PinFinal_1</title><g id="Capa_2" data-name="Capa 2"><g id="Capa_1-2" data-name="Capa 1"><path class="cls-1" d="M19,0A19.12,19.12,0,0,0,0,19.21C.09,37,16.18,53.15,16.18,53.15A4.19,4.19,0,0,0,22.29,53s16-17.72,15.94-34A19.11,19.11,0,0,0,19,0Z"/><path class="cls-2" d="M17.69,18.46a3.23,3.23,0,0,0,2.95,0L28,14.07a.92.92,0,0,0,0-1.73L20.64,8.07a3.31,3.31,0,0,0-3,0l-7.46,4.29a.9.9,0,0,0,0,1.71Z"/><path class="cls-2" d="M21.67,21a3.31,3.31,0,0,0-1.47,2.57v7.28c0,.94.67,1.33,1.48.85L29.1,27.4a3.29,3.29,0,0,0,1.48-2.56V17.42c0-.94-.66-1.32-1.47-.84Z"/><path class="cls-2" d="M16.75,21a3.34,3.34,0,0,1,1.47,2.57v7.28c0,.94-.67,1.33-1.48.85L9.32,27.4a3.29,3.29,0,0,1-1.48-2.56V17.42c0-.94.66-1.32,1.47-.84Z"/></g></g></svg>