<svg xmlns="http://www.w3.org/2000/svg" viewBox="0 0 42.93 61.1"><defs><style>.cls-1{fill:#ea712e;}.cls-2{fill:#fff;}</style></defs><title>PinInicio</title><g id="Capa_2" data-name="Capa 2"><g id="Capa_1-2" data-name="Capa 1"><path class="cls-1" d="M21.36,0A21.46,21.46,0,0,0,0,21.57c.1,20,18.17,38.12,18.17,38.12A4.7,4.7,0,0,0,25,59.53s18-19.9,17.9-38.17A21.46,21.46,0,0,0,21.36,0Z"/><path class="cls-2" d="M19.87,20.73a3.59,3.59,0,0,0,3.3,0l8.29-4.92a1,1,0,0,0,0-1.94l-8.27-4.8a3.66,3.66,0,0,0-3.32,0l-8.38,4.81a1,1,0,0,0,0,1.92Z"/><path class="cls-2" d="M24.34,23.57a3.72,3.72,0,0,0-1.65,2.89v8.18c0,1,.75,1.48,1.66,1l8.33-4.81a3.71,3.71,0,0,0,1.66-2.88V19.56c0-1.06-.74-1.48-1.65-.94Z"/><path class="cls-2" d="M18.81,23.57a3.75,3.75,0,0,1,1.65,2.89v8.18c0,1-.75,1.48-1.66,1l-8.33-4.81A3.68,3.68,0,0,1,8.81,27.9V19.56c0-1.06.74-1.48,1.65-.94Z"/></g></g></svg>