<svg xmlns="http://www.w3.org/2000/svg" viewBox="0 0 38.65 55"><defs><style>.cls-1{fill:#c5b7ac;}.cls-2{fill:#fff;}</style></defs><title>Where</title><g id="Capa_2" data-name="Capa 2"><g id="Capa_1-2" data-name="Capa 1"><path class="cls-1" d="M19.23,0A19.32,19.32,0,0,0,0,19.42c.09,18,16.36,34.31,16.36,34.31a4.23,4.23,0,0,0,6.18-.15S38.73,35.67,38.65,19.22A19.33,19.33,0,0,0,19.23,0Z"/><path class="cls-2" d="M4.71,20.57c.23-.27.44-.56.69-.8,1.76-1.7,3.54-3.39,5.31-5.08l4.08-3.88,2.7-2.58a1.93,1.93,0,0,1,2.73,0c1.37,1.3,2.73,2.62,4.1,3.93l.13.09c0-.12,0-.21,0-.3V8.57c0-.64.17-.84.72-.84h3c.52,0,.71.22.71.82v7.74a.59.59,0,0,0,.19.48c1.16,1.1,2.32,2.19,3.47,3.3a3.14,3.14,0,0,1,.38.5v.37c-.37.51-.73,1-1.11,1.55s-.61.49-1,.11c-1.06-1-2.1-2-3.15-3L25,16.94l-2.86-2.73-3.08-3c-.12-.12-.2-.12-.32,0L15.87,14l-2.81,2.68-2.83,2.7-3.15,3c-.12.12-.24.24-.37.35a.49.49,0,0,1-.8-.1c-.41-.54-.8-1.11-1.2-1.66Z"/><path class="cls-2" d="M21.09,33.45V25.76H16.85c-.2,0-.25.06-.25.29v7.44H10C9.2,33.47,8.75,33,8.75,32q0-4.65,0-9.3A.67.67,0,0,1,9,22.21l4.67-4.4,4.11-3.88,1.1-1,1.63,1.54,4.72,4.46c1.2,1.14,2.41,2.27,3.61,3.42a.54.54,0,0,1,.13.33c0,3.18,0,6.35,0,9.53a1.18,1.18,0,0,1-1.13,1.3H21.23Z"/></g></g></svg>